<svg version="1.1" xmlns="http://www.w3.org/2000/svg" x="0" y="0" width="18" height="14" viewBox="0 0 18 14" xml:space="preserve"><path fill="#868D93" d="M15.427 0H2.078C.933 0 0 .896 0 1.995V11.3c0 1.1.933 1.995 2.078 1.995h13.349c1.146 0 2.077-.896 2.077-1.995V1.995C17.504.896 16.572 0 15.427 0zm0 11.533H2.078c-.168 0-.316-.109-.316-.233V3.226l6.037 5.098c.124.104.282.16.444.16h1.019a.687.687 0 0 0 .444-.16l6.038-5.098V11.3c-.001.124-.148.233-.317.233zM8.752 6.736L2.88 1.762h11.744L8.752 6.736z"/></svg>