<svg version="1.1" xmlns="http://www.w3.org/2000/svg" x="0" y="0" width="18" height="18" viewBox="0 0 18 18" xml:space="preserve"><path fill="none" stroke="#868D93" stroke-width="1.5" stroke-opacity=".901" d="M15.83 14.971l.568-.567c.469-.47.469-1.23 0-1.7l-2.133-2.132a1.2 1.2 0 0 0-1.699 0l-.568.568-.776.776c-.466.466-2.106-.418-3.663-1.975-1.557-1.557-2.441-3.197-1.975-3.663l.541-.541.804-.804a1.203 1.203 0 0 0 0-1.7L4.797 1.102a1.203 1.203 0 0 0-1.7 0l-.805.804-.959.96c-1.569 1.569.136 5.819 3.809 9.492 3.673 3.673 7.922 5.379 9.492 3.809l1.196-1.196z"/></svg>